<?xml version="1.0" standalone="no"?>
<!DOCTYPE svg PUBLIC "-//W3C//DTD SVG 20010904//EN"
 "http://www.w3.org/TR/2001/REC-SVG-20010904/DTD/svg10.dtd">
<svg version="1.0" xmlns="http://www.w3.org/2000/svg"
 width="308.000000pt" height="308.000000pt" viewBox="0 0 308.000000 308.000000"
 preserveAspectRatio="xMidYMid meet">

<g transform="translate(0.000000,308.000000) scale(0.100000,-0.100000)"
fill="#000000" stroke="none">
<path d="M0 1540 c0 -1020 3 -1540 10 -1540 7 0 10 520 10 1540 0 1020 -3
1540 -10 1540 -7 0 -10 -520 -10 -1540z"/>
<path d="M1910 3063 c-40 -27 -108 -95 -138 -138 -15 -22 -31 -43 -37 -47 -6
-4 2 -20 19 -37 16 -17 27 -33 24 -37 -3 -3 -34 0 -68 7 -103 20 -355 -1 -396
-33 -7 -5 -34 -4 -65 3 -29 6 -94 9 -144 7 -80 -4 -102 -10 -168 -42 -128 -61
-240 -181 -321 -342 -19 -39 -39 -89 -44 -111 -5 -22 -28 -64 -50 -94 -121
-160 -178 -377 -137 -516 16 -54 82 -137 128 -162 22 -12 25 -21 31 -99 10
-114 42 -308 68 -402 33 -123 79 -259 89 -265 5 -4 19 -27 30 -53 22 -49 46
-82 61 -82 15 0 8 17 -26 62 -19 25 -46 78 -60 118 -14 40 -31 79 -37 87 -7 7
-9 16 -6 19 3 3 -1 27 -9 53 -32 107 -83 414 -84 498 0 31 1 32 30 22 29 -11
30 -12 31 -82 0 -40 2 -88 4 -107 3 -19 9 -80 15 -135 6 -55 18 -132 27 -170
l16 -71 59 -11 c32 -6 65 -16 72 -22 15 -12 29 -111 20 -135 -3 -8 -19 -18
-35 -21 -16 -4 -29 -12 -29 -18 0 -20 39 -77 58 -84 9 -3 31 -18 47 -34 17
-15 49 -32 72 -38 23 -7 45 -16 48 -21 5 -9 -9 -308 -21 -428 l-6 -62 -52 -15
c-28 -8 -64 -16 -81 -18 -20 -3 -14 -5 19 -6 47 -1 133 21 310 80 48 17 90 29
92 27 2 -2 0 -27 -5 -56 l-8 -52 301 0 301 0 -5 251 -5 250 64 57 c35 31 67
57 70 57 17 0 90 -95 100 -130 10 -36 51 -405 51 -462 0 -23 1 -23 153 -23
l153 0 -12 84 c-26 177 -37 515 -31 971 5 427 6 452 26 498 52 120 68 305 42
477 -11 74 -11 96 3 170 9 47 20 142 23 213 3 70 7 126 9 124 2 -1 7 -56 13
-122 27 -309 42 -630 51 -1083 12 -614 29 -838 91 -1210 10 -64 19 -118 19
-119 0 -2 7 -3 15 -3 8 0 12 6 10 13 -9 26 -64 438 -75 562 -6 72 -13 146 -15
165 -3 19 -10 260 -15 535 -18 898 -63 1381 -142 1539 -63 123 -227 267 -306
266 l-37 -1 36 -13 c59 -21 188 -108 189 -127 0 -4 -22 -9 -50 -11 -59 -6
-185 -83 -250 -154 -45 -49 -49 -50 -89 -29 -35 18 -68 91 -80 176 -8 58 -7
64 15 86 13 13 48 35 77 48 l52 25 -35 -1 c-19 0 -46 -7 -60 -16z m466 -168
c51 -51 87 -158 97 -290 10 -126 -23 -471 -42 -449 -5 5 -23 47 -41 93 -18 46
-54 115 -80 155 -58 88 -196 236 -261 278 -27 17 -49 34 -49 38 0 8 78 82 121
114 119 87 207 109 255 61z m-1269 -160 c32 -14 79 -46 104 -72 53 -51 67 -51
129 -3 48 38 154 80 220 87 165 17 342 -94 428 -269 83 -169 117 -368 128
-758 10 -366 8 -588 -6 -654 -6 -31 -15 -56 -19 -56 -3 0 -14 -13 -24 -29 -19
-33 -134 -151 -146 -151 -5 0 -21 -12 -36 -27 l-28 -28 7 55 c17 148 18 569 2
785 -18 238 -54 515 -86 651 -11 46 -20 93 -20 102 0 31 -67 155 -107 199 -85
92 -189 129 -244 85 -26 -22 -20 -52 10 -52 28 0 183 -82 241 -128 52 -40 78
-95 84 -173 2 -24 9 -75 15 -114 19 -120 21 -146 21 -299 1 -111 -3 -151 -12
-158 -22 -14 -123 -9 -144 7 -29 22 -34 18 -34 -20 0 -34 -1 -34 -37 -30 -21
2 -69 7 -108 9 -164 12 -228 33 -273 91 -31 39 -42 31 -42 -30 0 -30 -4 -55
-10 -55 -30 0 -181 36 -229 55 -47 18 -60 28 -79 64 -12 24 -23 65 -25 92 -3
61 -21 62 -54 4 -27 -48 -42 -115 -50 -215 -3 -41 -7 -77 -8 -79 -2 -2 -32 11
-65 28 -66 32 -150 96 -189 143 -22 28 -23 32 -11 91 24 123 111 292 207 398
87 98 241 196 468 300 l60 27 -43 41 c-24 23 -52 41 -63 41 -59 0 -149 -71
-242 -190 -27 -36 -64 -78 -81 -93 -76 -70 -109 -98 -112 -95 -1 2 15 38 37
82 89 176 215 303 344 348 63 22 54 22 122 -7z m1220 -417 c40 -82 68 -157 94
-253 9 -32 14 -106 14 -207 l0 -157 -45 -46 c-25 -26 -73 -69 -108 -97 l-63
-51 -35 19 -34 19 0 96 c0 80 5 108 26 165 61 160 95 331 97 491 1 57 4 103 7
103 3 0 24 -37 47 -82z m-1507 -573 c19 -25 58 -62 88 -83 l55 -37 -112 -3
c-61 -1 -111 -6 -111 -10 0 -4 35 -6 78 -4 43 2 119 -1 168 -8 49 -6 110 -14
137 -17 l47 -6 -3 85 -2 84 60 -37 c33 -21 87 -48 120 -60 33 -12 66 -26 73
-32 7 -6 64 -13 125 -15 95 -4 110 -3 100 9 -13 16 -21 73 -10 76 4 1 26 -6
50 -16 25 -11 69 -27 100 -37 37 -11 56 -23 55 -33 0 -9 4 -49 8 -90 7 -71 6
-74 -12 -66 -101 41 -275 53 -346 22 -40 -17 -50 -37 -19 -37 14 0 21 -10 28
-37 9 -37 10 -38 68 -46 33 -4 94 -6 135 -5 72 3 75 4 78 28 5 35 16 44 46 36
l26 -6 0 -164 c0 -90 -3 -184 -6 -209 -7 -46 -7 -46 -70 -71 -101 -41 -227
-58 -424 -60 -195 -1 -284 13 -397 64 -146 66 -226 200 -235 395 l-3 60 35 0
c31 0 35 -3 40 -30 l5 -30 98 -3 97 -3 0 30 c0 16 2 36 6 44 3 10 -11 21 -48
37 -48 20 -63 22 -152 17 l-99 -6 8 90 c3 50 14 107 24 127 22 49 51 102 54
102 2 0 18 -20 37 -45z m244 -89 c62 -11 71 -15 74 -35 3 -22 1 -23 -40 -16
-52 8 -157 57 -183 85 -18 20 -18 20 30 -1 27 -12 80 -27 119 -33z m-512 -89
c30 -15 71 -30 91 -34 31 -5 37 -10 37 -30 0 -23 -3 -24 -32 -18 -89 20 -203
105 -228 171 -16 40 -13 39 34 -13 24 -27 68 -61 98 -76z m1271 107 c9 -3 17
-10 17 -16 0 -13 -66 -1 -100 18 -24 14 -23 14 20 9 25 -4 53 -9 63 -11z
m-274 -23 c58 -6 85 -31 34 -31 -38 0 -158 26 -180 39 -18 10 2 9 146 -8z
m639 -163 c62 -68 55 -217 -14 -280 -18 -16 -19 -12 -20 143 -1 87 2 159 6
159 3 0 16 -10 28 -22z m-1253 -77 c16 -4 31 -14 33 -23 3 -14 -9 -17 -73 -20
-55 -2 -80 1 -88 10 -12 15 6 32 35 32 9 0 20 5 23 11 4 6 14 7 24 3 9 -3 29
-9 46 -13z m716 3 c7 -8 26 -15 43 -14 57 3 66 1 66 -20 0 -19 -6 -20 -92 -19
-112 2 -153 9 -153 29 0 11 10 14 41 12 30 -3 43 1 47 12 8 20 31 20 48 0z
m629 -110 c-6 -14 -10 -66 -10 -115 0 -183 51 -658 79 -731 7 -18 6 -31 -2
-42 -11 -14 -17 -14 -59 -2 -26 8 -73 16 -105 18 l-58 3 -17 95 c-33 191 -33
242 0 370 16 63 33 150 37 192 6 72 9 80 37 99 17 12 41 45 53 72 20 41 39 66
52 67 1 0 -2 -12 -7 -26z m-1349 -352 c65 -32 188 -66 282 -77 l48 -6 -35 -39
c-47 -52 -57 -95 -70 -289 l-11 -163 -45 -19 c-77 -31 -75 -32 -72 80 4 112 2
115 -81 129 l-42 8 -26 116 c-24 111 -38 305 -21 296 4 -2 37 -18 73 -36z
m814 -67 c-27 -25 -54 -45 -58 -45 -4 0 -19 12 -32 28 l-24 27 62 17 c102 27
109 23 52 -27z m285 -123 c-34 -72 -56 -101 -130 -174 -49 -49 -96 -88 -106
-88 -12 0 -14 3 -6 13 5 6 19 44 31 82 17 56 27 74 53 92 18 12 69 59 113 103
44 44 81 76 83 70 2 -6 -15 -50 -38 -98z m-756 25 c-1 -74 13 -129 38 -148 14
-11 17 -18 9 -23 -20 -13 -12 -36 28 -84 59 -71 142 -213 149 -252 l5 -35 -67
65 c-85 83 -119 137 -146 230 -12 41 -28 98 -36 127 -19 63 -20 138 -4 158 20
25 25 17 24 -38z m76 14 c0 -29 6 -44 23 -58 23 -18 23 -19 7 -48 -19 -35 -56
-45 -63 -18 -10 35 -19 142 -12 152 3 6 15 11 26 11 16 0 19 -7 19 -39z m260
14 c21 -25 1 -31 -22 -7 -18 18 -19 22 -6 22 8 0 21 -7 28 -15z m189 -71 c2
-2 -1 -9 -6 -16 -6 -7 -16 -29 -22 -49 -11 -33 -16 -37 -59 -43 -42 -6 -49 -4
-69 19 -29 33 -29 49 1 63 14 6 32 22 41 36 16 24 17 24 63 9 26 -9 49 -17 51
-19z m-281 -18 c3 -12 -1 -17 -10 -14 -7 3 -15 13 -16 22 -3 12 1 17 10 14 7
-3 15 -13 16 -22z m-4 -47 c11 18 23 13 30 -13 3 -14 -3 -43 -16 -72 l-21 -49
-28 59 c-23 49 -26 62 -16 83 l11 24 16 -22 c12 -14 19 -18 24 -10z m275 -85
c-32 -121 -33 -123 -17 -129 12 -5 12 -22 2 -117 -14 -115 -50 -258 -66 -258
-14 0 -111 66 -133 90 -10 11 -24 20 -32 20 -19 0 -18 95 2 118 9 9 40 49 70
89 29 39 71 87 91 106 33 30 37 37 25 51 -8 9 -12 17 -10 19 2 1 13 7 24 13
11 6 29 27 40 47 11 20 21 35 22 33 2 -1 -6 -38 -18 -82z m-293 -159 l5 -80
-36 59 c-20 33 -57 86 -83 118 -34 44 -43 61 -34 70 8 8 15 8 27 -2 14 -11 19
-10 38 8 l21 22 29 -58 c22 -44 30 -76 33 -137z m136 143 c29 11 35 10 53 -9
17 -18 18 -22 5 -27 -18 -6 -81 -69 -133 -132 l-37 -45 0 70 c0 49 6 85 22
123 l22 53 17 -23 c16 -21 21 -22 51 -10z m-484 -263 c7 -14 12 -31 12 -38 -1
-16 -35 -54 -93 -101 l-47 -38 0 33 c0 19 3 57 6 84 6 46 9 52 43 67 51 23 66
22 79 -7z"/>
<path d="M1666 1612 c-4 -6 23 -11 72 -14 74 -4 90 -3 81 6 -10 10 -147 18
-153 8z"/>
<path d="M900 1550 c0 -6 6 -10 14 -10 7 0 29 -3 47 -6 23 -4 29 -2 19 4 -23
14 -80 23 -80 12z"/>
<path d="M1458 1553 c18 -2 45 -2 60 0 15 2 0 4 -33 4 -33 0 -45 -2 -27 -4z"/>
<path d="M770 1299 c0 -11 157 -12 164 0 3 4 -33 9 -79 9 -47 0 -85 -4 -85 -9z"/>
<path d="M1600 1301 c47 -4 99 -3 115 0 17 4 -22 7 -85 6 l-115 0 85 -6z"/>
<path d="M1218 1023 c-21 -5 -23 -14 -6 -31 17 -17 139 -16 163 2 18 13 18 14
-3 25 -20 11 -119 13 -154 4z m124 -12 c17 -7 4 -10 -52 -10 -43 0 -69 3 -62
8 18 11 87 12 114 2z"/>
<path d="M3050 1540 c0 -1362 2 -1540 15 -1540 13 0 15 178 15 1540 0 1362 -2
1540 -15 1540 -13 0 -15 -178 -15 -1540z"/>
<path d="M1409 3039 c-30 -30 -89 -183 -76 -196 3 -2 13 22 22 53 22 76 49
129 77 148 12 9 17 16 10 16 -6 0 -21 -9 -33 -21z"/>
<path d="M1570 3017 c0 -2 15 -14 33 -27 20 -15 27 -17 18 -6 -13 16 -51 41
-51 33z"/>
<path d="M1690 2915 c13 -14 26 -25 28 -25 3 0 -5 11 -18 25 -13 14 -26 25
-28 25 -3 0 5 -11 18 -25z"/>
<path d="M719 830 c25 -65 28 -68 48 -47 22 22 7 55 -36 80 l-31 18 19 -51z"/>
<path d="M818 583 c6 -2 18 -2 25 0 6 3 1 5 -13 5 -14 0 -19 -2 -12 -5z"/>
<path d="M558 564 c-43 -13 -47 -17 -53 -54 -4 -24 -14 -44 -26 -50 -17 -9
-18 -20 -14 -116 4 -101 19 -154 44 -154 4 0 11 -30 15 -66 4 -37 11 -75 16
-84 13 -24 63 -40 119 -39 l46 1 -49 9 c-53 8 -106 28 -106 38 0 3 -7 112 -15
241 -17 266 -20 253 61 266 47 7 71 24 32 23 -13 0 -44 -7 -70 -15z m-52 -183
c2 -35 0 -60 -5 -57 -11 7 -24 103 -15 117 10 17 15 4 20 -60z m4 -97 c0 -8
-4 -12 -10 -9 -5 3 -10 13 -10 21 0 8 5 12 10 9 6 -3 10 -13 10 -21z m-3 -56
c-3 -8 -6 -5 -6 6 -1 11 2 17 5 13 3 -3 4 -12 1 -19z"/>
<path d="M582 511 c49 -21 345 -22 374 -1 19 14 0 15 -193 15 -195 0 -211 -1
-181 -14z"/>
</g>
</svg>
